#!OML:ASF G:\JayActor3\Patient Classification 1\Patient 1\Session 6\male.ASF
:FULLY-SPECIFIED
:DEGREES
1423
root 8.97643 11.9675 -2.79211 60.6025 -53.2478 -8.35118
lowerback 41.3288 1.72086 -2.7953
upperback 18.4061 -0.327763 0.796369
thorax 0.747119 -0.865136 2.37109
lowerneck 9.61302 1.16929 -3.40682
upperneck -15.6546 1.48779 2.73849
head -6.38305 0.684052 1.31373
rclavicle -3.57812e-014 2.8625e-014
rhumerus 74.9321 9.17861 -36.2908
rradius 33.9804
rwrist 22.2027
rhand -65.0921 35.8734
rfingers 7.12502
rthumb -36.9847 9.80494
lclavicle -3.57812e-014 2.8625e-014
lhumerus 74.602 -3.47953 14.5221
lradius 31.9106
lwrist -15.6386
lhand -62.5127 -23.714
lfingers 7.12502
lthumb -34.5405 2.94816
rfemur -122.648 -1.78382 35.7636
rtibia 99.756
rfoot -28.1728 -14.9032
rtoes -7.56488
lfemur -126.311 8.27661 -34.1374
ltibia 97.841
lfoot -22.3848 -3.64686
ltoes 2.5835
1424
root 8.9869 11.9831 -2.80086 60.2158 -53.2633 -8.0507
lowerback 41.2746 1.6528 -2.76432
upperback 18.4384 -0.395609 0.725707
thorax 0.801947 -0.889761 2.30258
lowerneck 9.66231 1.15631 -3.44425
upperneck -15.4099 1.48317 2.88348
head -6.31487 0.672607 1.36546
rclavicle 1.82882e-014 -2.46493e-014
rhumerus 74.9215 9.14019 -36.3409
rradius 33.7203
rwrist 22.1592
rhand -64.8248 34.7881
rfingers 7.12502
rthumb -36.7319 8.65483
lclavicle 1.82882e-014 -2.46493e-014
lhumerus 75.0389 -3.54686 13.9528
lradius 31.2441
lwrist -14.7321
lhand -62.3789 -25.0081
lfingers 7.12502
lthumb -34.4135 1.68286
rfemur -122.509 -1.95005 35.6015
rtibia 99.6391
rfoot -28.1078 -14.8869
rtoes -7.28737
lfemur -125.945 8.13457 -34.1378
ltibia 97.5507
lfoot -22.3134 -3.6369
ltoes 2.80554
1425
root 8.99748 12.0025 -2.80954 59.8199 -53.2866 -7.76757
lowerback 41.1799 1.58171 -2.72014
upperback 18.4814 -0.463091 0.638918
thorax 0.879652 -0.912883 2.20983
lowerneck 9.72899 1.13922 -3.52343
upperneck -15.0804 1.47058 3.07135
head -6.22325 0.656511 1.43789
rclavicle -3.65764e-014 -9.54166e-015
rhumerus 74.9083 9.11748 -36.3597
rradius 33.4476
rwrist 22.0216
rhand -64.4369 33.199
rfingers 7.12502
rthumb -36.3647 6.97294
lclavicle -3.65764e-014 -9.54166e-015
lhumerus 75.4668 -3.64376 13.3033
lradius 30.6341
lwrist -13.6317
lhand -62.0986 -25.991
lfingers 7.12502
lthumb -34.1474 0.759927
rfemur -122.296 -2.10999 35.4215
rtibia 99.4746
rfoot -28.0611 -14.8637
rtoes -7.02125
lfemur -125.522 8.00833 -34.1236
ltibia 97.2238
lfoot -22.2511 -3.60726
ltoes 3.00617
1426
root 9.00816 12.0263 -2.81813 59.4091 -53.3061 -7.51917
lowerback 41.0642 1.50503 -2.65301
upperback 18.5354 -0.531128 0.539759
thorax 0.975161 -0.934813 2.0921
lowerneck 9.76446 1.13972 -3.62485
upperneck -14.6079 1.48223 3.29497
head -6.08254 0.651632 1.52258
rclavicle -1.11319e-014 -3.85642e-014
rhumerus 74.9066 9.1204 -36.3285
rradius 33.1671
rwrist 21.7734
rhand -63.9094 31.133
rfingers 7.12502
rthumb -35.8651 4.78342
lclavicle -1.11319e-014 -3.85642e-014
lhumerus 75.8617 -3.76897 12.5749
lradius 30.1158
lwrist -12.336
lhand -61.6557 -26.458
lfingers 7.12502
lthumb -33.7266 0.386048
rfemur -121.986 -2.26302 35.2371
rtibia 99.2614
rfoot -28.028 -14.8494
rtoes -6.7856
lfemur -125.028 7.90752 -34.0804
ltibia 96.864
lfoot -22.1965 -3.54519
ltoes 3.14815
1427
root 9.0192 12.0553 -2.82653 58.9603 -53.3111 -7.29575
lowerback 40.9493 1.41523 -2.55281
upperback 18.5955 -0.605388 0.432081
thorax 1.07685 -0.957545 1.95026
lowerneck 9.795 1.14949 -3.73124
upperneck -14.0185 1.50308 3.52484
head -5.90513 0.651771 1.60852
rclavicle -3.97569e-015 -5.96354e-015
rhumerus 74.9167 9.15897 -36.2121
rradius 32.9006
rwrist 21.3799
rhand -63.219 28.5843
rfingers 7.12502
rthumb -35.2106 2.0777
lclavicle -3.97569e-015 -5.96354e-015
lhumerus 76.206 -3.92644 11.7981
lradius 29.7164
lwrist -10.8605
lhand -61.0291 -26.3455
lfingers 7.12502
lthumb -33.131 0.626931
rfemur -121.572 -2.42374 35.0566
rtibia 99.0017
rfoot -27.9888 -14.8415
rtoes -6.55493
lfemur -124.447 7.82564 -34.0028
ltibia 96.4719
lfoot -22.1424 -3.45403
ltoes 3.24311
1428
root 9.03082 12.0895 -2.83488 58.467 -53.2944 -7.10442
lowerback 40.8484 1.31518 -2.42246
upperback 18.6607 -0.683776 0.32508
thorax 1.17977 -0.980985 1.79481
lowerneck 9.85419 1.15743 -3.80021
upperneck -13.3492 1.51379 3.6968
head -5.70731 0.649687 1.67011
rclavicle 6.91771e-014 3.57812e-014
rhumerus 74.9438 9.2397 -35.9787
rradius 32.6681
rwrist 20.8172
rhand -62.3445 25.6516
rfingers 7.12502
rthumb -34.3809 -1.04677
lclavicle 6.91771e-014 3.57812e-014
lhumerus 76.4899 -4.1116 10.9695
lradius 29.4504
lwrist -9.1941
lhand -60.2057 -25.561
lfingers 7.12502
lthumb -32.3476 1.57458
rfemur -121.049 -2.59273 34.8927
rtibia 98.6989
rfoot -27.9362 -14.8462
rtoes -6.31582
lfemur -123.774 7.76684 -33.8864
ltibia 96.0508
lfoot -22.0744 -3.34985
ltoes 3.34379
1429
root 9.04317 12.1292 -2.8435 57.9251 -53.2532 -6.9452
lowerback 40.7697 1.21456 -2.27401
upperback 18.7261 -0.758306 0.232941
thorax 1.2759 -1.00298 1.64444
lowerneck 9.9829 1.14643 -3.796
upperneck -12.6448 1.48855 3.75494
head -5.50843 0.634286 1.6862
rclavicle 2.46493e-014 -3.18055e-014
rhumerus 74.9824 9.36446 -35.6364
rradius 32.4768
rwrist 20.1109
rhand -61.2468 22.5568
rfingers 7.12502
rthumb -33.338 -4.37146
lclavicle 2.46493e-014 -3.18055e-014
lhumerus 76.7192 -4.32381 10.101
lradius 29.3145
lwrist -7.36012
lhand -59.168 -24.1729
lfingers 7.12502
lthumb -31.3594 3.15943
rfemur -120.416 -2.76967 34.7517
rtibia 98.3539
rfoot -27.8716 -14.8658
rtoes -6.0674
lfemur -123.006 7.73285 -33.7271
ltibia 95.6017
lfoot -21.9901 -3.25171
ltoes 3.46846
1430
root 9.05618 12.1741 -2.85277 57.3449 -53.192 -6.81772
lowerback 40.6577 1.0684 -2.0607
upperback 18.8236 -0.869155 0.0899961
thorax 1.41692 -1.03546 1.41803
lowerneck 10.2048 1.12104 -3.73043
upperneck -11.9702 1.43938 3.73574
head -5.33342 0.60872 1.66982
rclavicle 2.54444e-014 -6.59965e-014
rhumerus 75.0679 9.51909 -35.2516
rradius 32.3393
rwrist 19.2588
rhand -59.9349 19.3241
rfingers 7.12502
rthumb -32.0899 -7.86381
lclavicle 2.54444e-014 -6.59965e-014
lhumerus 76.8836 -4.51248 9.09002
lradius 29.3206
lwrist -5.35159
lhand -57.8829 -22.1998
lfingers 7.12502
lthumb -30.1342 5.36311
rfemur -119.688 -2.94763 34.6354
rtibia 97.9684
rfoot -27.7943 -14.9057
rtoes -5.80741
lfemur -122.158 7.72388 -33.5351
ltibia 95.1233
lfoot -21.8859 -3.14451
ltoes 3.54626
1431
root 9.06943 12.2238 -2.86316 56.7325 -53.1247 -6.70834
lowerback 40.5117 0.924732 -1.85054
upperback 18.9368 -0.978999 -0.0505594
thorax 1.58457 -1.06842 1.19447
lowerneck 10.5463 1.06201 -3.60993
upperneck -11.353 1.33725 3.6157
head -5.19374 0.560323 1.61712
rclavicle -4.13472e-014 1.70955e-014
rhumerus 75.1756 9.69691 -34.7178
rradius 32.2875
rwrist 18.2101
rhand -58.3556 16.1565
rfingers 7.12502
rthumb -30.585 -11.3232
lclavicle -4.13472e-014 1.70955e-014
lhumerus 77.0081 -4.68676 8.03193
lradius 29.447
lwrist -3.23892
lhand -56.3749 -19.7989
lfingers 7.12502
lthumb -28.6944 8.01702
rfemur -118.882 -3.12083 34.529
rtibia 97.5422
rfoot -27.7152 -14.9557
rtoes -5.51786
lfemur -121.242 7.73924 -33.3303
ltibia 94.6112
lfoot -21.7631 -3.04199
ltoes 3.59343
1432
root 9.08268 12.2778 -2.87485 56.104 -53.059 -6.60936
lowerback 40.1801 0.780628 -1.63455
upperback 19.1924 -1.08643 -0.208407
thorax 1.79764 -1.09976 0.953936
lowerneck 10.9832 0.97784 -3.47416
upperneck -10.8016 1.20051 3.47292
head -5.08923 0.494672 1.55793
rclavicle -3.81667e-014 -2.0276e-014
rhumerus 75.2961 9.86972 -34.0823
rradius 32.3249
rwrist 16.9509
rhand -56.4987 13.1438
rfingers 7.12502
rthumb -28.8127 -14.652
lclavicle -3.81667e-014 -2.0276e-014
lhumerus 77.1175 -4.82491 6.92894
lradius 29.6937
lwrist -1.02005
lhand -54.6135 -17.1429
lfingers 7.12502
lthumb -27.0105 10.9459
rfemur -118.02 -3.28387 34.4236
rtibia 97.075
rfoot -27.6386 -15.0144
rtoes -5.2087
lfemur -120.278 7.77355 -33.1133
ltibia 94.0629
lfoot -21.6245 -2.96179
ltoes 3.65974
1433
root 9.09559 12.3359 -2.8878 55.4717 -53.0049 -6.51652
lowerback 39.8989 0.655869 -1.44818
upperback 19.3493 -1.18345 -0.360857
thorax 2.04886 -1.12793 0.722967
lowerneck 11.4484 0.873385 -3.34289
upperneck -10.2816 1.03887 3.34163
head -4.99852 0.415843 1.50547
rclavicle 2.70347e-014 5.20816e-014
rhumerus 75.424 10.0304 -33.3148
rradius 32.4881
rwrist 15.4114
rhand -54.3158 10.258
rfingers 7.12502
rthumb -26.7256 -17.8746
lclavicle 2.70347e-014 5.20816e-014
lhumerus 77.2049 -4.9173 5.83048
lradius 30.0591
lwrist 1.32078
lhand -52.5897 -14.4484
lfingers 7.12502
lthumb -25.0727 13.9257
rfemur -117.114 -3.433 34.3096
rtibia 96.5635
rfoot -27.5623 -15.0728
rtoes -4.88128
lfemur -119.278 7.8265 -32.9002
ltibia 93.4725
lfoot -21.4724 -2.90042
ltoes 3.72886
1434
root 9.1091 12.3968 -2.90104 54.8376 -52.947 -6.40563
lowerback 39.5554 0.541948 -1.27704
upperback 19.5044 -1.26983 -0.494977
thorax 2.31641 -1.15252 0.514359
lowerneck 11.8846 0.768 -3.21883
upperneck -9.71948 0.880858 3.24223
head -4.89033 0.337238 1.46414
rclavicle -8.66701e-014 -5.48646e-014
rhumerus 75.5263 10.183 -32.4119
rradius 32.8122
rwrist 13.535
rhand -51.7553 7.35081
rfingers 7.12502
rthumb -24.2729 -21.1326
lclavicle -8.66701e-014 -5.48646e-014
lhumerus 77.2687 -4.9839 4.86075
lradius 30.5337
lwrist 3.78808
lhand -50.1788 -11.6616
lfingers 7.12502
lthumb -22.7607 17.0158
rfemur -116.202 -3.5936 34.1901
rtibia 96.011
rfoot -27.4743 -15.1314
rtoes -4.58419
lfemur -118.259 7.85865 -32.684
ltibia 92.8356
lfoot -21.309 -2.84343
ltoes 3.81099
